<?xml version="1.0" encoding="utf-8"?>
<!-- Generator: Adobe Illustrator 15.1.0, SVG Export Plug-In . SVG Version: 6.00 Build 0)  -->
<!DOCTYPE svg PUBLIC "-//W3C//DTD SVG 1.1//EN" "http://www.w3.org/Graphics/SVG/1.1/DTD/svg11.dtd">
<svg version="1.1"
	 id="svg2" inkscape:version="0.48.5 r10040" sodipodi:docname="GoHappy.svg" xmlns:inkscape="http://www.inkscape.org/namespaces/inkscape" xmlns:sodipodi="http://sodipodi.sourceforge.net/DTD/sodipodi-0.dtd" xmlns:svg="http://www.w3.org/2000/svg" xmlns:rdf="http://www.w3.org/1999/02/22-rdf-syntax-ns#" xmlns:cc="http://creativecommons.org/ns#" xmlns:dc="http://purl.org/dc/elements/1.1/"
	 xmlns="http://www.w3.org/2000/svg" xmlns:xlink="http://www.w3.org/1999/xlink" x="0px" y="0px" width="606.586px"
	 height="148.781px" viewBox="-11.31 18.973 606.586 148.781" enable-background="new -11.31 18.973 606.586 148.781"
	 xml:space="preserve">
<sodipodi:namedview  pagecolor="#ffffff" bordercolor="#666666" id="base" borderopacity="1.0" inkscape:pageopacity="0.0" inkscape:cy="787.0479" inkscape:pageshadow="2" inkscape:zoom="1.4" inkscape:cx="279.49077" inkscape:document-units="px" inkscape:current-layer="layer1" showgrid="false" inkscape:window-width="1920" inkscape:window-height="1017" inkscape:window-x="-8" inkscape:window-y="-8" inkscape:window-maximized="1">
	</sodipodi:namedview>
<g id="layer1" inkscape:label="Ebene 1" inkscape:groupmode="layer">
	<g id="text2985">
		<path id="path3758" fill="#37469D" d="M72.291,99.129h10.406c6.516,0,9.773,2.297,9.773,6.891c0,3.094-1.148,5.52-3.445,7.277
			s-5.484,2.637-9.562,2.637H65.401l-5.203,12.938c-5.672,14.297-11.602,24.387-17.789,30.27s-13.898,8.824-23.133,8.824
			c-8.719,0-15.996-2.895-21.832-8.684s-8.754-13.02-8.754-21.691c0-13.688,6.562-24.234,19.688-31.641
			c8.016-4.453,19.031-6.68,33.047-6.68l11.18-0.141l2.391-5.977c-3.562,1.312-7.195,1.969-10.898,1.969
			c-7.172,0-12.961-2.496-17.367-7.488s-6.609-11.566-6.609-19.723h-9.703H8.588c-5.25,0-7.875-2.227-7.875-6.68
			c0-2.859,1.066-5.262,3.199-7.207s4.77-2.918,7.91-2.918h1.828h10.195c5.109-10.172,11.566-18.141,19.371-23.906
			s16.043-8.648,24.715-8.648c7.172,0,13.02,2.109,17.543,6.328s6.785,9.656,6.785,16.312c0,9.375-4.195,16.594-12.586,21.656
			c-5.578,3.375-13.969,5.062-25.172,5.062H38.471v1.406c0,6,3.516,9,10.547,9c3.141,0,6.352-0.938,9.633-2.812l3.727-2.18
			c3.234-1.875,6-2.812,8.297-2.812c2.578,0,4.711,0.773,6.398,2.32s2.531,3.539,2.531,5.977c0,1.5-0.656,3.867-1.969,7.102
			L72.291,99.129z M45.783,115.934c-9.891,0-17.461,0.938-22.711,2.812c-4.875,1.734-8.719,4.23-11.531,7.488
			s-4.219,6.855-4.219,10.793c0,3.656,1.207,6.75,3.621,9.281s5.379,3.797,8.895,3.797c4.266,0,8.121-1.898,11.566-5.695
			s6.879-9.938,10.301-18.422L45.783,115.934z M43.604,51.105h13.641c11.625,0,17.438-3.164,17.438-9.492
			c0-1.875-0.762-3.434-2.285-4.676s-3.457-1.863-5.801-1.863c-3.609,0-7.465,1.43-11.566,4.289S47.119,46.137,43.604,51.105
			L43.604,51.105z"/>
		<path id="path3760" fill="#37469D" d="M130.651,61.16c6.797,0,12.387,2.156,16.77,6.469s6.574,9.797,6.574,16.453
			c0,5.016-1.148,9.996-3.445,14.941s-5.273,8.895-8.93,11.848c-2.438,1.922-4.957,3.246-7.559,3.973s-6.246,1.09-10.934,1.09
			c-7.641,0-12.797-0.914-15.469-2.742c-6.281-4.312-9.422-10.688-9.422-19.125c0-8.906,3.211-16.617,9.633-23.133
			S121.885,61.16,130.651,61.16z M128.963,76.137c-3.469,0-6.633,1.711-9.492,5.133s-4.289,7.195-4.289,11.32
			c0,5.438,3.047,8.156,9.141,8.156c3.562,0,6.305-1.102,8.227-3.305c3.188-3.609,4.781-7.734,4.781-12.375
			c0-2.672-0.773-4.828-2.32-6.469S131.448,76.137,128.963,76.137z"/>
		<path id="path3762" fill="#37469D" d="M317.752,79.934l-7.805,19.195h12.164h1.828c5.25,0,7.875,2.297,7.875,6.891
			c0,3.094-1.148,5.52-3.445,7.277s-5.484,2.637-9.562,2.637h-14.414c-4.547,0-8.156-1.043-10.828-3.129s-4.008-4.934-4.008-8.543
			c0-2.25,0.539-4.688,1.617-7.312l1.125-2.742l5.836-14.273h-22.43l-13.711,33.68c-9.422,23.25-23.484,34.875-42.188,34.875
			c-9.938,0-18.129-3.105-24.574-9.316s-9.668-14.121-9.668-23.73c0-7.406,1.875-14.484,5.625-21.234s9.047-12.562,15.891-17.438
			c5.766-4.078,12.48-7.312,20.145-9.703s15.199-3.586,22.605-3.586l9.984-0.281l3.094-0.07l13.711-33.68l0.773-2.039
			c2.344-5.625,6.047-8.438,11.109-8.438c2.297,0,4.219,0.691,5.766,2.074s2.32,3.059,2.32,5.027c0,1.594-0.656,4.008-1.969,7.242
			l-12.094,29.812h22.43l13.57-33.398l0.844-2.109c2.391-5.766,6.141-8.648,11.25-8.648c2.203,0,4.078,0.703,5.625,2.109
			s2.32,3.141,2.32,5.203c0,1.594-0.68,4.078-2.039,7.453l-11.953,29.391h5.414h1.898c5.203,0,7.805,2.297,7.805,6.891
			c0,3.094-1.148,5.52-3.445,7.277s-5.461,2.637-9.492,2.637H317.752z M256.088,79.934h-3.797c-13.875,0-24.961,3.164-33.258,9.492
			c-4.312,3.281-7.711,7.055-10.195,11.32s-3.727,8.461-3.727,12.586c0,4.875,1.477,8.918,4.43,12.129s6.68,4.816,11.18,4.816
			c9.938,0,18.164-8.039,24.68-24.117L256.088,79.934z"/>
		<path id="path3764" fill="#37469D" d="M390.526,100.605h7.734c5.906,0,8.859,2.062,8.859,6.188c0,2.859-1.055,5.098-3.164,6.715
			s-5.016,2.426-8.719,2.426h-9c-4.031,0-6.773-1.57-8.227-4.711c-3.516,3.141-6.914,4.711-10.195,4.711h-8.016
			c-5.156,0-9.316-1.84-12.48-5.52s-4.746-8.496-4.746-14.449c0-9,3.105-17.051,9.316-24.152s13.23-10.652,21.059-10.652
			c6,0,10.383,2.086,13.148,6.258c2.344-3.516,5.414-5.273,9.211-5.273c2.062,0,3.785,0.656,5.168,1.969s2.074,2.93,2.074,4.852
			c0,1.312-0.375,2.883-1.125,4.711l-0.773,1.898L390.526,100.605z M365.002,100.957h1.758c3.844,0,6.398-1.57,7.664-4.711
			l4.922-12.164c0.656-1.594,0.984-2.93,0.984-4.008c0-1.266-0.621-2.367-1.863-3.305s-2.73-1.406-4.465-1.406
			c-3.422,0-6.75,1.992-9.984,5.977s-4.852,8.109-4.852,12.375C359.166,98.543,361.112,100.957,365.002,100.957z"/>
		<path id="path3766" fill="#37469D" d="M424.979,110.449l-18.352,45.141c-2.531,6.234-6.234,9.352-11.109,9.352
			c-1.875,0-3.48-0.621-4.816-1.863s-2.004-2.73-2.004-4.465c0-1.453,0.586-3.656,1.758-6.609l33.891-83.531
			c1.734-4.219,4.734-6.328,9-6.328c2.953,0,5.297,1.406,7.031,4.219c3.281-3.469,7.289-5.203,12.023-5.203
			c4.922,0,8.895,1.863,11.918,5.59s4.535,8.637,4.535,14.73c0,11.531-3.586,20.93-10.758,28.195
			c-2.344,2.391-4.758,4.031-7.242,4.922s-5.953,1.336-10.406,1.336c-4.781,0-8.074-0.328-9.879-0.984
			S426.901,112.793,424.979,110.449L424.979,110.449z M430.744,96.105c1.172,2.062,2.285,3.398,3.34,4.008s2.73,0.914,5.027,0.914
			c3.328,0,5.93-1.242,7.805-3.727c3.797-5.016,5.695-10.172,5.695-15.469c0-4.547-2.156-6.82-6.469-6.82
			c-4.734,0-8.133,2.742-10.195,8.227c-0.234,0.609-0.422,1.125-0.562,1.547L430.744,96.105z"/>
		<path id="path3768" fill="#37469D" d="M487.979,110.449l-18.352,45.141c-2.531,6.234-6.234,9.352-11.109,9.352
			c-1.875,0-3.48-0.621-4.816-1.863s-2.004-2.73-2.004-4.465c0-1.453,0.586-3.656,1.758-6.609l33.891-83.531
			c1.734-4.219,4.734-6.328,9-6.328c2.953,0,5.297,1.406,7.031,4.219c3.281-3.469,7.289-5.203,12.023-5.203
			c4.922,0,8.895,1.863,11.918,5.59s4.535,8.637,4.535,14.73c0,11.531-3.586,20.93-10.758,28.195
			c-2.344,2.391-4.758,4.031-7.242,4.922s-5.953,1.336-10.406,1.336c-4.781,0-8.074-0.328-9.879-0.984
			S489.901,112.793,487.979,110.449z M493.744,96.105c1.172,2.062,2.285,3.398,3.34,4.008s2.73,0.914,5.027,0.914
			c3.328,0,5.93-1.242,7.805-3.727c3.797-5.016,5.695-10.172,5.695-15.469c0-4.547-2.156-6.82-6.469-6.82
			c-4.734,0-8.133,2.742-10.195,8.227c-0.234,0.609-0.422,1.125-0.562,1.547L493.744,96.105z"/>
		<path id="path3770" fill="#37469D" d="M575.869,118.816h8.156c5.953,0,8.93,2.086,8.93,6.258c0,2.859-1.043,5.086-3.129,6.68
			s-5.004,2.391-8.754,2.391h-11.391c-1.359,4.031-3.82,9.375-7.383,16.031c-6.188,11.719-15.188,17.578-27,17.578
			c-7.172,0-13.195-2.25-18.07-6.75s-7.312-10.078-7.312-16.734c0-4.641,1.324-8.965,3.973-12.973s6.129-7.02,10.441-9.035
			c4.969-2.297,12.305-3.445,22.008-3.445h11.461l2.039-5.062c-3.469,1.453-6.656,2.18-9.562,2.18
			c-5.016,0-9.082-1.277-12.199-3.832s-4.676-5.871-4.676-9.949c0-2.484,1.008-6.211,3.023-11.18l7.664-18.914l0.773-1.969
			c2.25-5.297,5.742-7.945,10.477-7.945c2.062,0,3.785,0.656,5.168,1.969s2.074,2.977,2.074,4.992c0,1.359-0.609,3.562-1.828,6.609
			l-6.891,16.805c-1.078,2.719-1.641,4.477-1.688,5.273c-0.141,2.297,1.312,3.445,4.359,3.445c2.156,0,4.359-0.633,6.609-1.898
			s3.68-2.695,4.289-4.289l9.422-22.992l0.703-1.969c2.203-5.297,5.695-7.945,10.477-7.945c2.062,0,3.785,0.668,5.168,2.004
			s2.074,2.988,2.074,4.957c0,1.359-0.352,2.93-1.055,4.711l-0.844,1.898L575.869,118.816z M552.877,134.145h-9.844
			c-10.781,0-16.172,3.375-16.172,10.125c0,2.391,0.738,4.312,2.215,5.766s3.457,2.18,5.941,2.18c3.422,0,6.457-1.336,9.105-4.008
			S549.69,140.848,552.877,134.145z"/>
	</g>
</g>
</svg>
