<?xml version="1.0" encoding="UTF-8" standalone="no"?>
<!-- Created with Inkscape (http://www.inkscape.org/) -->

<svg
   xmlns:dc="http://purl.org/dc/elements/1.1/"
   xmlns:cc="http://creativecommons.org/ns#"
   xmlns:rdf="http://www.w3.org/1999/02/22-rdf-syntax-ns#"
   xmlns:svg="http://www.w3.org/2000/svg"
   xmlns="http://www.w3.org/2000/svg"
   xmlns:sodipodi="http://sodipodi.sourceforge.net/DTD/sodipodi-0.dtd"
   xmlns:inkscape="http://www.inkscape.org/namespaces/inkscape"
   width="210mm"
   height="297mm"
   id="svg2"
   version="1.1"
   inkscape:version="0.48.5 r10040"
   sodipodi:docname="GoHappy.svg">
  <defs
     id="defs4" />
  <sodipodi:namedview
     id="base"
     pagecolor="#ffffff"
     bordercolor="#666666"
     borderopacity="1.0"
     inkscape:pageopacity="0.0"
     inkscape:pageshadow="2"
     inkscape:zoom="1.4"
     inkscape:cx="279.49077"
     inkscape:cy="787.0479"
     inkscape:document-units="px"
     inkscape:current-layer="layer1"
     showgrid="false"
     inkscape:window-width="1920"
     inkscape:window-height="1017"
     inkscape:window-x="-8"
     inkscape:window-y="-8"
     inkscape:window-maximized="1" />
  <metadata
     id="metadata7">
    <rdf:RDF>
      <cc:Work
         rdf:about="">
        <dc:format>image/svg+xml</dc:format>
        <dc:type
           rdf:resource="http://purl.org/dc/dcmitype/StillImage" />
        <dc:title></dc:title>
      </cc:Work>
    </rdf:RDF>
  </metadata>
  <g
     inkscape:label="Ebene 1"
     inkscape:groupmode="layer"
     id="layer1">
    <g
       style="font-size:40px;font-style:normal;font-weight:normal;line-height:125%;letter-spacing:0px;word-spacing:0px;fill:#37469d;fill-opacity:1;stroke:none;font-family:Sans"
       id="text2985">
      <path
         d="m 127.22433,89.128922 10.40625,0 c 6.51552,1.6e-5 9.77333,2.296889 9.77343,6.890625 -1e-4,3.093756 -1.14854,5.519533 -3.44531,7.277343 -2.29698,1.75781 -5.48447,2.63672 -9.5625,2.63672 l -14.0625,0 -5.20312,12.9375 c -5.67195,14.29685 -11.60163,24.38668 -17.789065,30.26953 -6.187554,5.88276 -13.898483,8.82417 -23.132813,8.82422 -8.718778,-5e-5 -15.996114,-2.89458 -21.832031,-8.68359 -5.835946,-5.7891 -8.753912,-13.01957 -8.753906,-21.69141 -6e-6,-13.68751 6.562487,-24.23437 19.6875,-31.640626 8.015591,-4.453111 19.031205,-6.679671 33.046875,-6.679687 l 11.17969,-0.140625 2.39062,-5.976563 c -3.56257,1.312521 -7.19538,1.968771 -10.898435,1.96875 -7.171929,2.1e-5 -12.960986,-2.49607 -17.367188,-7.488281 -4.406289,-4.992154 -6.609412,-11.566367 -6.609375,-19.722656 l -9.703125,0 -1.828125,0 c -5.25002,4.8e-5 -7.875018,-2.226513 -7.875,-6.679688 -1.8e-5,-2.859317 1.066387,-5.261659 3.199219,-7.207031 2.132789,-1.945249 4.769505,-2.917904 7.910156,-2.917969 l 1.828125,0 10.195313,0 c 5.109329,-10.1718 11.566353,-18.140542 19.371093,-23.90625 7.804622,-5.76553 16.042892,-8.6483401 24.714842,-8.6484375 7.17178,9.74e-5 13.01944,2.1094705 17.54297,6.3281255 4.52333,4.218836 6.78505,9.656331 6.78516,16.3125 -1.1e-4,9.375065 -4.19542,16.593808 -12.58594,21.65625 -5.57822,3.375049 -13.96883,5.062548 -25.17188,5.0625 l -16.031245,0 0,1.40625 c -5.6e-5,6.00004 3.515566,9.000037 10.546875,9 3.14056,3.7e-5 6.35149,-0.937462 9.63281,-2.8125 l 3.72656,-2.179688 c 3.2343,-1.874956 5.99992,-2.812455 8.29688,-2.8125 2.57803,4.5e-5 4.71084,0.773482 6.39844,2.320313 1.6874,1.546916 2.53115,3.539102 2.53125,5.976562 -1e-4,1.500036 -0.65635,3.867221 -1.96875,7.101563 z m -26.50782,16.804688 c -9.890673,0 -17.460978,0.9375 -22.710933,2.8125 -4.875035,1.73437 -8.718781,4.23046 -11.53125,7.48828 -2.812526,3.2578 -4.218774,6.85545 -4.21875,10.79297 -2.4e-5,3.65622 1.207006,6.74997 3.621094,9.28125 2.414032,2.53122 5.378873,3.79684 8.894531,3.79687 4.265584,-3e-5 8.121049,-1.89847 11.566406,-5.69531 3.445261,-3.7969 6.878851,-9.93752 10.300782,-18.42187 z m -2.179683,-64.828126 13.640623,0 c 11.62492,6.5e-5 17.43741,-3.163994 17.4375,-9.492187 -9e-5,-1.874924 -0.76181,-3.433516 -2.28515,-4.675782 -1.52353,-1.242107 -3.45712,-1.8632 -5.80079,-1.863281 -3.60945,8.1e-5 -7.46492,1.429767 -11.5664,4.289063 -4.10163,2.859448 -7.91022,6.773507 -11.425783,11.742187 z"
         style="font-size:144px;font-style:oblique;font-variant:normal;font-stretch:normal;text-align:start;line-height:125%;writing-mode:lr-tb;text-anchor:start;fill:#37469d;font-family:Harlow Solid Italic;-inkscape-font-specification:'Harlow Solid Italic, Oblique'"
         id="path3758" />
      <path
         d="m 185.5837,51.160172 c 6.79683,5.4e-5 12.38667,2.156302 16.76953,6.46875 4.38276,4.312544 6.57416,9.796913 6.57422,16.453125 -6e-5,5.015651 -1.1485,9.996115 -3.44531,14.941406 -2.29693,4.945324 -5.27349,8.894539 -8.92969,11.847657 -2.43755,1.92188 -4.95707,3.24609 -7.55859,3.97266 -2.6016,0.72656 -6.24613,1.08984 -10.9336,1.08984 -7.64064,0 -12.79689,-0.91406 -15.46875,-2.74219 -6.28126,-4.312491 -9.42188,-10.687485 -9.42187,-19.124998 -10e-6,-8.90622 3.21093,-16.61715 9.63281,-23.132813 6.42185,-6.515573 14.0156,-9.773383 22.78125,-9.773437 z m -1.6875,14.976562 c -3.46878,4e-5 -6.63284,1.710976 -9.49219,5.132813 -2.8594,3.421906 -4.28908,7.195339 -4.28906,11.320312 -2e-5,5.437518 3.04685,8.156265 9.14063,8.15625 3.56246,1.5e-5 6.30465,-1.101546 8.22656,-3.304687 3.18746,-3.609353 4.7812,-7.734349 4.78125,-12.375 -5e-5,-2.671842 -0.77348,-4.82809 -2.32031,-6.46875 -1.54692,-1.640587 -3.56254,-2.460898 -6.04688,-2.460938 z"
         style="font-size:144px;font-style:oblique;font-variant:normal;font-stretch:normal;text-align:start;line-height:125%;writing-mode:lr-tb;text-anchor:start;fill:#37469d;font-family:Harlow Solid Italic;-inkscape-font-specification:'Harlow Solid Italic, Oblique'"
         id="path3760" />
      <path
         d="m 372.68526,69.933609 -7.80468,19.195313 12.16406,0 1.82812,0 c 5.24986,1.6e-5 7.87486,2.296889 7.875,6.890625 -1.4e-4,3.093756 -1.14858,5.519533 -3.44531,7.277343 -2.29701,1.75781 -5.48451,2.63672 -9.5625,2.63672 l -14.41406,0 c -4.54699,0 -8.15636,-1.04297 -10.82813,-3.12891 -2.67197,-2.08593 -4.00791,-4.933583 -4.00781,-8.542966 -1e-4,-2.249986 0.53896,-4.687484 1.61719,-7.3125 l 1.125,-2.742187 5.83594,-14.273438 -22.42969,0 -13.71094,33.679691 c -9.42194,23.24998 -23.48442,34.87496 -42.1875,34.875 -9.93752,-4e-5 -18.12892,-3.1055 -24.57422,-9.31641 -6.44531,-6.21095 -9.66796,-14.1211 -9.66797,-23.73047 1e-5,-7.406241 1.875,-14.484359 5.625,-21.234373 3.75,-6.749972 9.04687,-12.562466 15.89063,-17.4375 5.7656,-4.078082 12.48044,-7.312454 20.14453,-9.703125 7.66402,-2.390574 15.19916,-3.585886 22.60547,-3.585938 l 9.98437,-0.28125 3.09375,-0.07031 13.71094,-33.679688 0.77344,-2.039062 c 2.34366,-5.624906 6.04678,-8.4374035 11.10937,-8.4375005 2.29678,9.7e-5 4.21865,0.6915025 5.76563,2.0742185 1.54677,1.382906 2.3202,3.058686 2.32031,5.027344 -1.1e-4,1.593838 -0.65636,4.007898 -1.96875,7.242188 l -12.09375,29.8125 22.42969,0 13.57031,-33.398438 0.84375,-2.109375 c 2.39049,-5.765531 6.14049,-8.6483405 11.25,-8.6484375 2.20298,9.7e-5 4.07798,0.7032213 5.625,2.1093755 1.54673,1.406343 2.32016,3.140716 2.32031,5.203125 -1.5e-4,1.593838 -0.67983,4.07821 -2.03906,7.453125 l -11.95312,29.390625 5.41406,0 1.89844,0 c 5.20297,5.2e-5 7.80453,2.296925 7.80468,6.890625 -1.5e-4,3.093792 -1.14858,5.519571 -3.44531,7.277343 -2.29702,1.75785 -5.46108,2.636755 -9.49219,2.636719 z m -61.66406,0 -3.79687,0 c -13.87505,3.6e-5 -24.96098,3.164095 -33.25782,9.492188 -4.31252,3.281273 -7.71096,7.054706 -10.19531,11.320312 -2.48439,4.265636 -3.72658,8.460944 -3.72656,12.585941 -2e-5,4.87499 1.47654,8.91796 4.42969,12.1289 2.9531,3.21093 6.67966,4.81639 11.17968,4.81641 9.93746,-2e-5 18.16402,-8.03907 24.67969,-24.117188 z"
         style="font-size:144px;font-style:oblique;font-variant:normal;font-stretch:normal;text-align:start;line-height:125%;writing-mode:lr-tb;text-anchor:start;fill:#37469d;font-family:Harlow Solid Italic;-inkscape-font-specification:'Harlow Solid Italic, Oblique'"
         id="path3762" />
      <path
         d="m 445.4587,90.605484 7.73438,0 c 5.90618,1.5e-5 8.8593,2.062513 8.85937,6.1875 -7e-5,2.859381 -1.05476,5.097656 -3.16406,6.714846 -2.10944,1.61719 -5.01569,2.42578 -8.71875,2.42578 l -9,0 c -4.0313,0 -6.77348,-1.57031 -8.22656,-4.71094 -3.51567,3.14063 -6.9141,4.71094 -10.19532,4.71094 l -8.01562,0 c -5.15627,0 -9.31642,-1.83984 -12.48047,-5.51953 -3.16407,-3.679681 -4.7461,-8.496082 -4.74609,-14.449221 -1e-5,-8.999971 3.10546,-17.050744 9.3164,-24.152344 6.21092,-7.101511 13.23044,-10.652289 21.0586,-10.652343 5.99995,5.4e-5 10.38276,2.08599 13.14843,6.257812 2.3437,-3.515573 5.41401,-5.273384 9.21094,-5.273437 2.06244,5.3e-5 3.7851,0.656303 5.16797,1.96875 1.38275,1.31255 2.07415,2.929736 2.07422,4.851562 -7e-5,1.312546 -0.37507,2.882857 -1.125,4.710938 l -0.77344,1.898437 z m -25.52344,0.351563 1.75782,0 c 3.84371,1.4e-5 6.3984,-1.570296 7.66406,-4.710938 l 4.92187,-12.164062 c 0.65621,-1.593717 0.98434,-2.929653 0.98438,-4.007813 -4e-5,-1.265588 -0.62114,-2.367149 -1.86328,-3.304687 -1.24223,-0.93746 -2.73051,-1.40621 -4.46485,-1.40625 -3.42191,4e-5 -6.75003,1.992226 -9.98437,5.976562 -3.2344,3.984406 -4.85159,8.109401 -4.85156,12.375 -3e-5,4.828142 1.94528,7.242202 5.83593,7.242188 z"
         style="font-size:144px;font-style:oblique;font-variant:normal;font-stretch:normal;text-align:start;line-height:125%;writing-mode:lr-tb;text-anchor:start;fill:#37469d;font-family:Harlow Solid Italic;-inkscape-font-specification:'Harlow Solid Italic, Oblique'"
         id="path3764" />
      <path
         d="m 479.91183,100.44923 -18.35157,45.14063 c -2.53125,6.23433 -6.23437,9.35151 -11.10937,9.35156 -1.87499,-5e-5 -3.48046,-0.62114 -4.81641,-1.86328 -1.33592,-1.24223 -2.00389,-2.73051 -2.0039,-4.46484 10e-6,-1.45317 0.58595,-3.65629 1.75781,-6.60938 l 33.89062,-83.531248 c 1.73436,-4.218699 4.73435,-6.328072 9,-6.328125 2.9531,5.3e-5 5.29684,1.406302 7.03125,4.21875 3.28121,-3.468697 7.28902,-5.203071 12.02344,-5.203125 4.92182,5.4e-5 8.89448,1.863334 11.91797,5.589843 3.02337,3.726608 4.53509,8.63676 4.53516,14.730469 -7e-5,11.531273 -3.586,20.929701 -10.75782,28.195313 -2.3438,2.390633 -4.75786,4.031253 -7.24218,4.921873 -2.48442,0.89063 -5.95317,1.33594 -10.40625,1.33594 -4.78129,0 -8.07425,-0.32813 -9.87891,-0.98438 -1.80471,-0.65624 -3.66799,-2.15624 -5.58984,-4.5 z m 5.76562,-14.343746 c 1.17185,2.062518 2.28513,3.398454 3.33985,4.007813 1.05465,0.60939 2.73043,0.914077 5.02734,0.914062 3.32809,1.5e-5 5.92965,-1.242171 7.80469,-3.726562 3.79682,-5.015602 5.69526,-10.171847 5.69531,-15.46875 -5e-5,-4.546837 -2.1563,-6.820272 -6.46875,-6.820313 -4.73441,4.1e-5 -8.13285,2.742226 -10.19531,8.226563 -0.23441,0.609407 -0.42191,1.125031 -0.5625,1.546875 z"
         style="font-size:144px;font-style:oblique;font-variant:normal;font-stretch:normal;text-align:start;line-height:125%;writing-mode:lr-tb;text-anchor:start;fill:#37469d;font-family:Harlow Solid Italic;-inkscape-font-specification:'Harlow Solid Italic, Oblique'"
         id="path3766" />
      <path
         d="m 542.91183,100.44923 -18.35157,45.14063 c -2.53125,6.23433 -6.23437,9.35151 -11.10937,9.35156 -1.87499,-5e-5 -3.48046,-0.62114 -4.81641,-1.86328 -1.33592,-1.24223 -2.00389,-2.73051 -2.0039,-4.46484 10e-6,-1.45317 0.58595,-3.65629 1.75781,-6.60938 l 33.89062,-83.531248 c 1.73436,-4.218699 4.73435,-6.328072 9,-6.328125 2.9531,5.3e-5 5.29684,1.406302 7.03125,4.21875 3.28121,-3.468697 7.28902,-5.203071 12.02344,-5.203125 4.92182,5.4e-5 8.89448,1.863334 11.91797,5.589843 3.02337,3.726608 4.53509,8.63676 4.53516,14.730469 -7e-5,11.531273 -3.586,20.929701 -10.75782,28.195313 -2.3438,2.390633 -4.75786,4.031253 -7.24218,4.921873 -2.48442,0.89063 -5.95317,1.33594 -10.40625,1.33594 -4.78129,0 -8.07425,-0.32813 -9.87891,-0.98438 -1.80471,-0.65624 -3.66799,-2.15624 -5.58984,-4.5 z m 5.76562,-14.343746 c 1.17185,2.062518 2.28513,3.398454 3.33985,4.007813 1.05465,0.60939 2.73043,0.914077 5.02734,0.914062 3.32809,1.5e-5 5.92965,-1.242171 7.80469,-3.726562 3.79682,-5.015602 5.69526,-10.171847 5.69531,-15.46875 -5e-5,-4.546837 -2.1563,-6.820272 -6.46875,-6.820313 -4.73441,4.1e-5 -8.13285,2.742226 -10.19531,8.226563 -0.23441,0.609407 -0.42191,1.125031 -0.5625,1.546875 z"
         style="font-size:144px;font-style:oblique;font-variant:normal;font-stretch:normal;text-align:start;line-height:125%;writing-mode:lr-tb;text-anchor:start;fill:#37469d;font-family:Harlow Solid Italic;-inkscape-font-specification:'Harlow Solid Italic, Oblique'"
         id="path3768" />
      <path
         d="m 630.80245,108.81642 8.15625,0 c 5.95307,0 8.92963,2.08593 8.92969,6.25781 -6e-5,2.85937 -1.04303,5.08593 -3.12891,6.67969 -2.08599,1.59373 -5.00396,2.39061 -8.7539,2.39063 l -11.39063,0 c -1.35941,4.03122 -3.82035,9.37497 -7.38281,16.03125 -6.18753,11.7187 -15.18752,17.57807 -27,17.57812 -7.17187,-5e-5 -13.19531,-2.25005 -18.07031,-6.75 -4.87499,-4.50004 -7.31248,-10.07816 -7.3125,-16.73437 2e-5,-4.64065 1.32423,-8.96487 3.97265,-12.97266 2.64845,-4.00782 6.12892,-7.01954 10.44141,-9.03516 4.96875,-2.29688 12.30468,-3.44531 22.00781,-3.44531 l 11.46094,0 2.03906,-5.0625 c -3.46878,1.45313 -6.65627,2.17969 -9.5625,2.17969 -5.01564,0 -9.08204,-1.27734 -12.19922,-3.83203 -3.11719,-2.554683 -4.67578,-5.871086 -4.67578,-9.949221 0,-2.484359 1.00781,-6.210917 3.02344,-11.179687 l 7.66406,-18.914063 0.77344,-1.96875 c 2.24998,-5.296824 5.74217,-7.945259 10.47656,-7.945312 2.06247,5.3e-5 3.78513,0.656303 5.16797,1.96875 1.38278,1.31255 2.07419,2.976611 2.07422,4.992187 -3e-5,1.35942 -0.60941,3.562543 -1.82813,6.609375 l -6.89062,16.804688 c -1.07815,2.71877 -1.64065,4.476581 -1.6875,5.273437 -0.14065,2.296891 1.31248,3.445327 4.35937,3.445313 2.15623,1.4e-5 4.35935,-0.632798 6.60938,-1.898438 2.24996,-1.265607 3.67965,-2.695293 4.28906,-4.289062 l 9.42188,-22.992188 0.70312,-1.96875 c 2.20308,-5.296824 5.69526,-7.945259 10.47656,-7.945312 2.06244,5.3e-5 3.7851,0.668021 5.16797,2.003906 1.38275,1.335988 2.07416,2.98833 2.07422,4.957031 -6e-5,1.35942 -0.35163,2.929731 -1.05469,4.710938 l -0.84375,1.898437 z m -22.99219,15.32813 -9.84375,0 c -10.78125,-2e-5 -16.17187,3.37497 -16.17187,10.125 0,2.39059 0.73828,4.31246 2.21484,5.76562 1.47656,1.45309 3.45703,2.17965 5.94141,2.17969 3.42187,-4e-5 6.45702,-1.33597 9.10547,-4.00781 2.64842,-2.67191 5.56638,-7.3594 8.7539,-14.0625 z"
         style="font-size:144px;font-style:oblique;font-variant:normal;font-stretch:normal;text-align:start;line-height:125%;writing-mode:lr-tb;text-anchor:start;fill:#37469d;font-family:Harlow Solid Italic;-inkscape-font-specification:'Harlow Solid Italic, Oblique'"
         id="path3770" />
    </g>
  </g>
</svg>
