<?xml version="1.0" encoding="utf-8"?>
<!-- Generator: Adobe Illustrator 15.1.0, SVG Export Plug-In . SVG Version: 6.00 Build 0)  -->
<!DOCTYPE svg PUBLIC "-//W3C//DTD SVG 1.1//EN" "http://www.w3.org/Graphics/SVG/1.1/DTD/svg11.dtd">
<svg version="1.1" id="Ebene_1" xmlns="http://www.w3.org/2000/svg" xmlns:xlink="http://www.w3.org/1999/xlink" x="0px" y="0px"
	 width="490.124px" height="497.5px" viewBox="156.519 50 490.124 497.5" enable-background="new 156.519 50 490.124 497.5"
	 xml:space="preserve">
<g id="settings">
	<path d="M585,325c0-7.5,2.5-15,2.5-25s0-17.5-2.5-25l52.5-42.5c5-5,5-10,2.5-15L590,130c-2.5-2.5-7.5-5-15-2.5l-62.5,25
		c-12.5-10-27.5-17.5-42.5-25l-10-65c2.5-7.5-5-12.5-10-12.5H350c-5,0-12.5,5-12.5,10l-10,67.5c-15,5-27.5,15-42.5,25l-60-25
		c-7.5-2.5-12.5,0-17.5,5l-50,87.5c-2.5,2.5,0,10,5,15l52.5,40c0,7.5-2.5,15-2.5,25s0,17.5,2.5,25l-52.5,42.5c-5,5-5,10-2.5,15
		l50,87.5c2.5,2.5,7.5,5,15,2.5l62.5-25c12.5,10,27.5,17.5,42.5,25l10,65c0,5,5,10,12.5,10h100c5,0,12.5-5,12.5-10l10-65
		c15-7.5,30-15,42.5-25l62.5,25c5,2.5,12.5,0,15-5l50-87.5c2.5-5,2.5-12.5-2.5-15L585,325z M400,387.5c-47.5,0-87.5-40-87.5-87.5
		s40-87.5,87.5-87.5s87.5,40,87.5,87.5S447.5,387.5,400,387.5z"/>
</g>
</svg>
