<?xml version="1.0" encoding="utf-8"?>
<!-- Generator: Adobe Illustrator 15.1.0, SVG Export Plug-In . SVG Version: 6.00 Build 0)  -->
<!DOCTYPE svg PUBLIC "-//W3C//DTD SVG 1.1//EN" "http://www.w3.org/Graphics/SVG/1.1/DTD/svg11.dtd">
<svg version="1.1" id="Ebene_1" xmlns="http://www.w3.org/2000/svg" xmlns:xlink="http://www.w3.org/1999/xlink" x="0px" y="0px"
	 width="400px" height="550px" viewBox="200 25 400 550" enable-background="new 200 25 400 550" xml:space="preserve">
<g id="loop">
	<path d="M400,100V25L300,125l100,100v-75c82.5,0,150,67.5,150,150c0,25-7.5,50-17.5,70l37.5,37.5C587.5,375,600,340,600,300
		C600,190,510,100,400,100z M400,450c-82.5,0-150-67.5-150-150c0-25,7.5-50,17.5-70L230,192.5C212.5,225,200,260,200,300
		c0,110,90,200,200,200v75l100-100L400,375V450z"/>
</g>
</svg>
